<?xml version="1.0" encoding="utf-8"?>
<!-- Generator: Adobe Illustrator 21.0.0, SVG Export Plug-In . SVG Version: 6.00 Build 0)  -->
<svg version="1.1" id="图层_1" xmlns="http://www.w3.org/2000/svg" xmlns:xlink="http://www.w3.org/1999/xlink" x="0px" y="0px"
	 viewBox="0 0 400 400" style="enable-background:new 0 0 400 400;" xml:space="preserve">
<style type="text/css">
	.st0{fill:#040000;}
</style>
<g>
	<path class="st0" d="M400,340.7c-0.5,0-1-0.4-1-1l-0.2-43.1c0-4.5,0-9.1-1.5-13.4c-1.4-4.3-4.3-8-7.1-11.7
		c-0.4-0.6-0.9-1.2-1.3-1.7c-6.2-8.3-10.4-18.4-14.3-28.1c-2.3-5.5-4.6-11.3-7.3-16.5c-2.8-5.4-4-11.5-5.1-17.3c-1-5-2-10.2-4-14.9
		c-4.1-9.5-12.4-17.7-25.5-25.1c-4.3-2.4-8.9-4.7-13.3-6.9c-6.5-3.2-13.3-6.5-19.4-10.6c-23-15.1-37.1-39.7-50.8-63.5
		c-3.9-6.8-7.9-13.8-12-20.4c-5.5-8.8-21.9-23.9-44.2-29.2c-36.6-8.6-74.3-4.7-103.4,10.7C74,56.3,61,68.5,48.5,80.2
		c-4.3,4.1-9.2,8.6-11.8,14.3c-2.8,6-3.2,13.6-1.1,21.4c2.3,0,3.7-0.5,4.3-1.6c0.2-0.5,0.8-0.7,1.3-0.5c0.5,0.2,0.7,0.8,0.5,1.3
		c-1.5,3.1-5.6,2.8-6.9,2.7l-0.7,0l-0.2-0.7c-2.4-8.5-2.1-16.8,1-23.4c2.8-6,7.8-10.8,12.3-14.9c12.6-11.9,25.7-24.1,41.4-32.4
		c29.5-15.6,67.7-19.6,104.8-10.9c22.9,5.4,39.7,21,45.4,30.1c4.2,6.7,8.2,13.7,12.1,20.5c13.5,23.6,27.5,47.9,50.1,62.8
		c6.1,4,12.8,7.3,19.2,10.5c4.4,2.2,9,4.4,13.4,6.9c13.4,7.6,22,16.1,26.3,26c2.1,4.9,3.1,10.2,4.2,15.3c1.1,5.7,2.3,11.6,4.9,16.8
		c2.7,5.3,5.1,11.1,7.4,16.7c3.9,9.6,8,19.5,14.1,27.7c0.4,0.6,0.9,1.2,1.3,1.7c2.9,3.8,5.8,7.7,7.4,12.2c1.5,4.6,1.6,9.4,1.6,14
		l0.2,43.1C401,340.2,400.6,340.7,400,340.7C400,340.7,400,340.7,400,340.7z"/>
	<path class="st0" d="M83.4,175.1c-0.9-3.7-3.8-6.8-6.5-9.8c-0.9-1-1.8-2-2.6-3c-1.4-1.7-3-3-4.8-4.5c-0.7-0.6-1.4-1.1-2-1.7
		c-5.4-4.8-9.7-10.8-13.3-16c-4.8-7-10-15.3-11.2-24.4c-0.6-4.8-0.1-9.7,0.4-14.4c0.6-6.1,1.2-11.8-0.3-17.4l1.9-0.5
		c1.7,5.9,1,12.2,0.4,18.2c-0.5,4.6-1,9.4-0.4,13.9c1.1,8.7,6,16.4,10.9,23.6c3.5,5.2,7.7,11,13,15.6c0.6,0.6,1.3,1.1,2,1.7
		c1.7,1.4,3.5,2.9,5,4.7c0.8,1,1.7,1.9,2.6,2.9c2.9,3.2,6,6.5,7,10.7L83.4,175.1z"/>
	<path class="st0" d="M98.5,170c-2.5-1.1-5.8-3.5-9.1-5.8c-3.2-2.2-6.5-4.5-8.8-5.6l-0.2-0.1c-5-4.1-6.6-10.9-8.1-17.4
		c-0.7-2.9-1.4-5.9-2.3-8.5l-3.5-9.6c-3.1-8.4-6.3-17.2-6.7-26.4c-0.3-6.7,0.9-13.4,2-19.8c0.7-3.8,1.4-7.7,1.8-11.6l2,0.2
		c-0.4,3.9-1.1,7.9-1.8,11.7c-1.1,6.3-2.3,12.9-2,19.4c0.4,8.9,3.6,17.5,6.6,25.8l3.5,9.6c1,2.8,1.7,5.8,2.4,8.8
		c1.5,6.4,2.9,12.5,7.3,16.2c2.5,1.1,5.8,3.5,9,5.7c3.2,2.2,6.5,4.5,8.8,5.6L98.5,170z"/>
	<path class="st0" d="M257.5,142c-42.5-16.4-85.3-33.7-127.3-51.2c-5.1-2.1-10.3-4.3-15.2-7.3c-7.5-4.6-13.8-10.9-19.9-16.9
		c-4-4-8.2-8.7-8-14.5l2,0.1c-0.2,4.9,3.5,9.1,7.4,13c6,6,12.2,12.2,19.5,16.6c4.7,2.9,9.9,5.1,14.9,7.1
		c42,17.5,84.8,34.7,127.3,51.2L257.5,142z"/>
	<path class="st0" d="M265.7,169.9l-1-1.7c4.7-2.6,16.5-10.7,18.2-15.4c1.6-4.4,1.8-9.5,0.9-16.1l2-0.3c1,6.9,0.7,12.4-1,17.1
		C282.8,159,270.1,167.4,265.7,169.9z"/>
	<path class="st0" d="M271.5,173.4v-2c4.2,0,7.8-1.8,10.9-5.2c5.9-6.7,8-18.1,7.1-25.4l2-0.3c1,7.7-1.3,19.8-7.5,27
		C280.4,171.4,276.3,173.4,271.5,173.4z"/>
	<path class="st0" d="M284.4,175.8l-1.5-1.3c2.8-3.1,5.5-6.4,8-9.7c1.9-2.5,4-5.5,4.5-8.8c0.3-1.9,0.1-3.7-0.1-5.7
		c-0.2-1.6-0.3-3.2-0.2-4.8l2,0.1c-0.1,1.5,0.1,3,0.2,4.5c0.2,2,0.4,4.1,0.1,6.2c-0.6,3.7-2.8,7-4.9,9.7
		C290,169.4,287.2,172.7,284.4,175.8z"/>
	<path class="st0" d="M302.7,368.9c-5.3-3.4-9.4-9.5-11.5-17c-1.8-6.8-2-14-2.1-20.3c-0.4-25.6-0.6-53.2,1-81.2
		c0.1-2.2,0.3-4.4,0.4-6.6c1.2-20,2.5-40.6-3.7-59.6c-1.1-3.3-2.6-7-5.7-8.7c-2-1.1-4.5-1.4-7-1.7c-3.6-0.4-7.4-0.9-9.6-3.9
		c-1-0.1-2,0.7-2.5,1.6c-0.7,1.3-0.7,2.9-0.8,4.3c-0.3,10.3-0.2,20.7,0.5,30.9l0,0.3c0.3,4.5,0.6,9.1-1.2,13.4
		c-2.5,6.1-11.5,12.1-13.3,13.3l-1.1-1.7c4.7-3,10.8-8,12.5-12.3c1.6-3.8,1.3-8.3,1-12.5l0-0.3c-0.6-10.3-0.8-20.8-0.5-31.1
		c0-1.6,0.1-3.5,1-5.2c0.9-1.7,3-3.1,5.2-2.5l0.4,0.1l0.2,0.3c1.6,2.5,4.9,2.9,8.3,3.3c2.7,0.3,5.5,0.6,7.8,2
		c3.7,2.1,5.4,6.1,6.6,9.8c6.3,19.3,5,40.2,3.8,60.3c-0.1,2.2-0.3,4.4-0.4,6.6c-1.6,28-1.4,55.5-1,81.1c0.1,6.2,0.2,13.3,2,19.9
		c1.9,7.1,5.7,12.7,10.6,15.9L302.7,368.9z"/>
	<path class="st0" d="M329.5,312.5l-2-0.2l1.6-14.9c0.3-3.1,0.7-6.5-0.4-9.5c-0.6-1.5-1.5-2.9-2.4-4.4c-0.5-0.8-1.1-1.7-1.6-2.5
		c-2.4-4.2-3.2-9.1-4-13.7l-0.1-0.3c-3.9-22.8-9.2-45.6-15.7-67.8c-4.7-16-6.1-28.2-4.1-37.2l2,0.4c-1.9,8.6-0.6,20.5,4,36.2
		c6.6,22.3,11.9,45.1,15.8,68l0.1,0.3c0.8,4.5,1.6,9.2,3.8,13.1c0.5,0.8,1,1.6,1.5,2.4c1,1.5,2,3,2.7,4.8c1.2,3.4,0.9,7.1,0.5,10.4
		L329.5,312.5z"/>
	<path class="st0" d="M314.3,337.1l-2-0.3c1.9-11.6-0.6-25.8-6.4-37c-2.9-5.5-4-17-4.9-27.2c-0.4-4.5-0.8-8.8-1.3-11.5
		c-2.3-12.6-2.3-24.8-2.2-36.6c0-10.2,0-20.7-1.4-31.6c-0.5-3.9-1.7-9.6-2.8-15.1c-0.9-4.6-1.8-9-2.4-12.3l2-0.3
		c0.5,3.2,1.4,7.6,2.3,12.2c1.1,5.5,2.3,11.2,2.8,15.2c1.5,11,1.5,21.6,1.4,31.8c0,11.7-0.1,23.8,2.2,36.2c0.5,2.8,0.9,6.9,1.4,11.7
		c0.9,9.5,2,21.4,4.7,26.5C313.7,310.4,316.2,325.1,314.3,337.1z"/>
	<path class="st0" d="M84.1,182.3c-9.8-3.6-14.1-10.2-19.1-17.9c-1.3-1.9-2.5-3.9-4-6c-6.6-9.3-13.4-18.9-17-30.1
		c-0.3-0.9-0.5-1.7-0.8-2.6c-0.9-2.8-1.7-5.7-3-8.2c-0.4,0.7-0.8,1.3-1.3,2c-0.6,0.8-1.1,1.5-1.4,2.3c-0.4,1-0.4,2.2-0.4,3.5l0,0.1
		c0,10.5-1.4,20.9-4.3,30.9l-1.9-0.6c2.8-9.9,4.3-20.1,4.2-30.3l0-0.1c0-1.4,0-2.8,0.5-4.2c0.4-1,1-1.9,1.7-2.8
		c0.6-0.8,1.2-1.6,1.4-2.5c0.2-0.6,0.7-1,1.3-1c0.6-0.1,1.2,0.2,1.5,0.8c1.6,2.9,2.6,6.3,3.6,9.5c0.3,0.9,0.5,1.8,0.8,2.6
		c3.5,10.9,10.2,20.4,16.7,29.6c1.5,2.1,2.8,4.1,4,6c5,7.7,9,13.7,18.2,17.1L84.1,182.3z"/>
	<path class="st0" d="M2,356.9c-0.1,0-0.1,0-0.2,0l0-2c0,0,0.1,0,0.1,0c6.1,0,11.1-4.8,13.8-9.4c2.1-3.5,3.4-7.5,4.8-11.4
		c0.6-1.9,1.3-3.8,2.1-5.7c4.8-12.2,13.2-22.6,21.2-32.6c4.9-6,9.9-12.3,14.1-18.9c4.5-7.1,12-15.5,19.4-23.5
		c1.3-1.4,2.4-2.8,3.5-4.1c4.1-5.1,7.6-9.4,15.1-7.9c1.5,0.3,3.4,2.6,4.4,4.1c0.9,1.4,1.2,2.6,1,3.4l-1.9-0.5c0.2-1-2.7-4.8-3.8-5.1
		c-6.2-1.3-9.1,2.3-13.1,7.2c-1.1,1.4-2.3,2.8-3.6,4.2c-7.3,8-14.7,16.3-19.2,23.2c-4.3,6.7-9.3,12.9-14.2,19
		c-8,9.9-16.2,20.2-20.9,32.1c-0.7,1.9-1.4,3.8-2,5.7c-1.4,4-2.8,8.1-4.9,11.8C14.5,351.6,8.9,356.9,2,356.9z"/>
	<path class="st0" d="M50.7,321.2l-1.1-1.7c10.6-7,17.7-18.1,23.2-28c1.4-2.5,2.7-5.1,4.1-7.6c4.4-8.4,9-17,15.1-24.5
		c0.9-1.1,1.9-2.2,2.8-3.3c1.8-2.1,3.7-4.3,5.2-6.6c1.8-2.7,3.3-5.7,4.8-8.6c0.8-1.6,1.6-3.3,2.5-4.9c3.2-5.8,6.5-9.5,10.5-11.8
		c4.4-2.5,10.9-3.4,15.6,0.3l0.2,0.2c1.8,1.4,1.5,2.1,0.4,4.3l-1.8-0.9c0.2-0.4,0.6-1.2,0.7-1.4c-0.1-0.1-0.3-0.3-0.5-0.4l-0.2-0.2
		c-3.4-2.7-8.9-2.7-13.4-0.2c-3.6,2.1-6.7,5.6-9.7,11c-0.9,1.6-1.7,3.2-2.5,4.8c-1.5,2.9-3,6-4.9,8.8c-1.6,2.4-3.5,4.6-5.4,6.7
		c-0.9,1.1-1.9,2.2-2.8,3.3c-6,7.3-10.5,15.9-14.9,24.2c-1.3,2.5-2.7,5.1-4.1,7.6C68.9,302.6,61.7,313.9,50.7,321.2z"/>
	<path class="st0" d="M111.1,333.5l-2,0c0.2-16.4,10-31.9,19.4-46.9c0.9-1.4,1.7-2.7,2.6-4.1c2.7-4.3,4.9-9.3,7.1-14.2
		c2.4-5.3,4.8-10.8,7.9-15.5c6-9.1,9.1-19.8,8.2-28c-0.1-0.9-0.9-2.4-2.3-3.4c-0.9-0.7-2.3-1.4-4.1-1c-7.8,1.4-10,3.8-15.3,10.3
		c-1.8,2.3-3,5.1-4,7.9c-0.2,0.4-0.3,0.9-0.5,1.3c-4.9,12.4-12.4,23.6-19.7,34.4c-7.1,10.6-14.5,21.6-19.3,33.6l-0.4,0.9
		c-2.5,6.3-5.4,13.5-12.1,15.6l-0.6-1.9c5.8-1.8,8.5-8.5,10.8-14.4l0.4-0.9c4.9-12.2,12.3-23.2,19.5-33.9
		c7.2-10.8,14.7-21.9,19.5-34c0.2-0.4,0.3-0.9,0.5-1.3c1.1-2.9,2.3-5.9,4.3-8.5c5.4-6.6,7.9-9.4,16.5-11c1.9-0.4,3.9,0.1,5.6,1.4
		c1.7,1.2,2.9,3.2,3.1,4.8c0.9,8.8-2.3,19.7-8.5,29.3c-3,4.5-5.4,9.9-7.7,15.2c-2.2,4.9-4.5,10.1-7.2,14.5c-0.9,1.4-1.7,2.7-2.6,4.1
		C121,302.4,111.4,317.7,111.1,333.5z"/>
	<path class="st0" d="M124.2,355.1c-1.4,0-2.8-0.3-3.2-0.4l-1.4-0.3l0.7-1.2c4.3-7.2,10.7-15.2,16.3-22.2c2.1-2.7,4.1-5.2,5.7-7.3
		c2.3-3.1,4.8-6.6,7.2-10c2.1-3,4.3-6.1,6.3-8.9c3.1-4.1,5.7-9.2,8.2-14.2c1.6-3.1,3.2-6.3,4.9-9.1c1.3-2.2,2.1-4.1,2.9-6.1
		c0.7-1.6,1.3-3.2,2.3-5c1.2-2.2,2.4-5.7,1.9-9.2c-0.5-3.2-2.7-5.9-5.3-6.8c-3.1-1-6.5,0.2-9.5,1.6c-1.1,0.5-6.5,5.8-7.5,7.7
		l-7.7,14.7c-1.9,3.6-3.8,7.3-6.3,10.6c-2.2,2.9-4.8,5.5-7.3,8.1c-1,1-2,2-3,3.1c-7.4,7.8-13.4,16.7-17.7,26.5l-1.8-0.8
		c4.5-10,10.6-19.1,18.1-27.1c1-1,2-2.1,3-3.1c2.5-2.5,5-5,7.1-7.9c2.4-3.2,4.3-6.8,6.1-10.4l7.7-14.7c1.2-2.2,6.8-7.8,8.5-8.6
		c3.3-1.5,7.2-2.9,11-1.7c3.4,1.1,6,4.4,6.7,8.4c0.5,3.2-0.2,6.8-2.1,10.4c-0.9,1.7-1.5,3.3-2.2,4.8c-0.9,2.1-1.7,4.1-3.1,6.4
		c-1.7,2.8-3.2,5.8-4.9,9c-2.6,5-5.2,10.2-8.4,14.4c-2,2.8-4.2,5.9-6.3,8.9c-0.6,0.9-1.3,1.8-1.9,2.7c0.1,5.7-0.4,15.8-4.4,21
		c-1.4,1.8-3.1,3.2-4.8,4.6c-0.4,0.3-0.9,0.7-1.3,1.1c-1.6,1.3-3.1,2.7-4.5,4.1c-1.5,1.4-3.1,2.9-4.7,4.2c-1,0.8-2.2,1.8-3.7,2.3
		C125.4,355,124.9,355.1,124.2,355.1z M122.9,353c0.9,0.1,1.9,0.1,2.3,0c1.1-0.4,2.2-1.2,3-1.9c1.6-1.3,3.1-2.8,4.6-4.2
		c1.5-1.4,3-2.9,4.6-4.2c0.4-0.4,0.9-0.7,1.3-1.1c1.7-1.4,3.2-2.6,4.5-4.2c3.1-4,3.9-11.4,4-16.9c-1.1,1.5-2.2,3-3.3,4.5
		c-1.6,2.2-3.6,4.7-5.8,7.3C133,338.8,127.1,346.2,122.9,353z"/>
	<path class="st0" d="M147.9,357c-3.3,0-5.2-0.1-5.3-0.1c-0.6,0-1-0.5-1-1c0-0.6,0.5-1,1-1c0.4,0,45.3,1.4,78.1-9.6
		c11.3-3.8,37.7-14.7,39.2-34.4c1.2-15.5-19.8-25.8-34.3-28.9c-0.5-0.1-0.9-0.6-0.8-1.2c0.1-0.5,0.6-0.9,1.1-0.8
		c0.7,0.1,2.6,0.3,4.9,0.5c5.8,0.5,14.6,1.4,18.5,2.5c0.5,0.2,0.8,0.7,0.7,1.2s-0.7,0.8-1.2,0.7c-2.6-0.8-7.8-1.4-12.6-1.9
		c5.2,2,10.1,4.5,14.1,7.4c8.2,6,12.2,13.1,11.7,20.6c-1.6,20.8-28.9,32.2-40.6,36.1C195,356.1,160.9,357,147.9,357z"/>
	<path class="st0" d="M282,362.5c-0.2,0-0.4,0-0.5-0.1c-16.7-10.3-14.3-25.2-11.9-39.6c1.4-8.5,2.7-16.6,0.2-23.6
		c-1.1-3.1-4.9-6.7-10.2-9.8c-0.5-0.3-0.6-0.9-0.4-1.4c0.3-0.5,0.9-0.6,1.4-0.4c2.7,1.6,9.3,5.8,11.1,10.9
		c2.6,7.5,1.2,16.2-0.2,24.6c-2.4,14.4-4.6,28,11,37.6c0.5,0.3,0.6,0.9,0.3,1.4C282.7,362.3,282.3,362.5,282,362.5z"/>
	<path class="st0" d="M50.4,277.8c-1.4,0-2.8,0-4.1-0.1c-3.9-0.2-8.9-0.8-12.9-3.5c-2.4-1.6-4.3-3.9-6-6c-2-2.4-4-4.9-5.8-7.6
		c-2.7-4.1-4.8-8.6-6.4-12.4c-9-21-14.3-43.1-15.9-65.9c-0.5-7.8-0.5-16.1,3.1-23.1c2.8-5.4,7.7-10,14-12.9
		c5.3-2.4,11.5-3.8,18.6-3.9l0,2c-6.8,0.1-12.8,1.4-17.8,3.7c-5.8,2.7-10.4,7-13,12c-3.4,6.6-3.4,14.5-2.9,22.1
		c1.6,22.5,6.8,44.5,15.7,65.2c1.6,3.7,3.6,8.1,6.2,12.1c1.8,2.6,3.8,5.1,5.7,7.5c1.7,2,3.4,4.1,5.6,5.6c3.6,2.4,8.3,3,11.9,3.2
		c4,0.2,8.1,0.1,12.1-0.3l0.2,2C56,277.6,53.2,277.8,50.4,277.8z"/>
	<path class="st0" d="M152.8,220.4l-1.6-1.2l0.1-0.1c0.9-1.3,1.8-2.3,1.8-5c0-3.2-0.6-6.7-5.3-9.7c-9.5-6.3-29.1-17-36.5-19
		c-6.3-1.7-13-1.9-19.5-2l-2-0.1c-38.5-1.1-54.7-10-64.5-17.7c-1.2-0.9-2.6-2.1-3.4-3.7c-1.8-3.5,0-7.7,2.6-10.1
		c2.7-2.4,6.2-3.4,9.3-4.3l0.6,1.9c-2.9,0.9-6.2,1.8-8.5,3.9c-2,1.8-3.5,5.1-2.2,7.7c0.6,1.2,1.7,2.1,2.8,3
		c18.2,14.3,43.4,16.7,63.4,17.3l2,0.1c6.6,0.2,13.5,0.3,20,2.1c7.9,2.1,27.6,13,37.1,19.3c5.5,3.6,6.2,8,6.2,11.4
		c0,3.3-1.1,4.8-2.2,6.2L152.8,220.4z"/>
	<path class="st0" d="M177.2,266.9l-0.4-2c9-1.7,18.3-2.4,27.5-2l0.4,0c3.8,0.2,7.7,0.3,10.5-1.7c1.5-1.1,3.4-3.8,5.1-6.3
		c1.5-2.1,2.9-4.2,4.1-5.3l1.4,1.5c-1.1,1-2.4,3-3.9,5c-1.9,2.7-3.8,5.5-5.6,6.8c-3.4,2.5-7.9,2.3-11.8,2.1l-0.4,0
		C195.2,264.6,186.1,265.3,177.2,266.9z"/>
	<path class="st0" d="M226.6,295l-2,0c0.1-8,0.6-20.1,1.6-27.9l0-0.1c0.4-3.7,1.4-11.5-0.5-14.6l1.7-1c2.2,3.7,1.2,11.6,0.7,15.8
		l0,0.1C227.2,275.1,226.7,287.1,226.6,295z"/>
	<path class="st0" d="M180.2,214.2c-0.6-3.5-0.2-7.1,0.1-10.5c0.3-3.1,0.6-6.3,0.2-9.4c-0.8-5.5-4.1-10.9-9.1-14.8
		c-4.3-3.4-9.9-5.7-16.5-7.1c-7.5-1.5-14.9-1.4-21.4,0.4c-6.9,1.9-14.7,7.1-19.1,12.8l-1.6-1.2c4.6-6,12.9-11.5,20.2-13.5
		c6.8-1.8,14.5-2,22.4-0.4c7,1.4,12.8,3.9,17.4,7.5c5.4,4.2,9,10.1,9.8,16.1c0.5,3.3,0.1,6.6-0.2,9.9c-0.3,3.5-0.7,6.7-0.1,10
		L180.2,214.2z"/>
</g>
<path class="st0" d="M261.5,289.5c-0.1,0-0.1,0-0.2,0c-2.8,0-10.4-2.2-14.7-8.4c-1.8-2.5-3.8-4.9-5.8-7.2c-2.3-2.7-4.7-5.5-6.7-8.5
	c-1-1.5-1.9-3-2.8-4.6c-1.7-2.9-3.4-5.8-5.6-8.3c-3.8-4.3-22.7-10-28-10.8c-1-0.2-2-0.4-3.2-0.6c-3.9-0.7-8.3-1.5-11.6-1.4l-0.7,0
	c-9.5,0.2-19.3,0.5-28.3-3.1l0.7-1.9c8.7,3.5,18.3,3.2,27.5,3l0.7,0c3.5-0.1,8,0.7,12,1.4c1.1,0.2,2.2,0.4,3.1,0.5
	c4.8,0.8,24.8,6.5,29.1,11.5c2.3,2.6,4.1,5.7,5.8,8.6c0.9,1.5,1.8,3,2.7,4.5c1.9,2.9,4.3,5.7,6.5,8.3c2,2.3,4.1,4.8,5.9,7.3
	c4,5.7,11,7.5,13.1,7.5c0,0,0.1,0,0.1,0c2.6,0,5.3-0.9,8-2.6c2.1-1.3,3.5-3.4,4.1-6.1c1.7-7.6-2.8-18-4.1-20.1
	c-7.4-11.7-12.6-17.3-23.2-25.1c-4.6-3.4-13.2-9.5-20-13c-3.4-1.7-11.8-2.9-15.5-3.3c-6.1-0.8-12.5-1.1-18.6-1.4
	c-13.5-0.6-27.4-1.3-39.7-7.4l0.9-1.8c11.8,6,25.6,6.6,38.8,7.2c6.2,0.3,12.6,0.6,18.8,1.4c3.7,0.5,12.4,1.7,16.1,3.5
	c6.9,3.5,15.7,9.7,20.3,13.1c10.7,7.9,16.2,13.8,23.7,25.6c1.5,2.4,6.3,13.4,4.4,21.7c-0.7,3.2-2.4,5.7-5,7.3
	C267.4,288.5,264.4,289.5,261.5,289.5z"/>
<path class="st0" d="M145.9,332.4l-0.2-2c23.3-2.3,49.6-6.8,68.6-22.9c9.5-8,14.1-17.8,12.3-26.2l2-0.4c2,9.1-2.9,19.6-13,28.2
	C196.2,325.4,169.5,330,145.9,332.4z"/>
</svg>
